<?xml version="1.0" encoding="UTF-8"?>
<!DOCTYPE svg PUBLIC "-//W3C//DTD SVG 1.1//EN" "http://www.w3.org/Graphics/SVG/1.1/DTD/svg11.dtd">
<!-- Creator: CorelDRAW -->
<svg xmlns="http://www.w3.org/2000/svg" xml:space="preserve" width="2.7092mm" height="2.7092mm" version="1.1" style="shape-rendering:geometricPrecision; text-rendering:geometricPrecision; image-rendering:optimizeQuality; fill-rule:evenodd; clip-rule:evenodd"
viewBox="0 0 270.92 270.92"
 xmlns:xlink="http://www.w3.org/1999/xlink"
 xmlns:xodm="http://www.corel.com/coreldraw/odm/2003">
 <defs>
  <style type="text/css">
   <![CDATA[
    .fil0 {fill:black}
    .fil1 {fill:white}
   ]]>
  </style>
 </defs>
 <g id="Camada_x0020_1">
  <metadata id="CorelCorpID_0Corel-Layer"/>
  <g id="_1554161131808">
   <rect class="fil0" x="-0" y="-0" width="270.93" height="270.93"/>
   <path class="fil1" d="M130.85 251.14c-1.16,2.68 -1.15,-0.06 -1.75,3.36 3.36,0.92 18.88,0.16 24.68,0.2 3.33,0.02 5.38,0.86 7.57,-0.93 -0.47,-2.17 -5.13,-3.1 -6.52,-8.48 -1.45,-5.59 -1.17,-23.69 -1.23,-30.78l0.38 -14.64c0.64,-2.45 12.31,-1.74 15.1,-1.76l14.73 -1.44c8.09,-1.24 17.31,-4.22 23.96,-8.79 1.68,-1.16 7.36,-5.86 8.32,-7.41 2.45,-3.95 4.73,-5.63 6.36,-10 3.2,-8.59 5.28,-17.82 3.01,-27.98 -0.54,-2.41 -0.6,-3.88 -1.67,-6.06 -0.98,-1.98 -1.86,-3.43 -2.74,-5.41 -0.94,-2.13 -0.35,-1.11 -1.46,-2.71 -0.63,-0.89 -1,-1.56 -1.68,-2.4 -1.69,-2.1 -4.44,-3.96 -6.88,-5.43 -0.02,-0.01 -1.11,-0.72 -1.22,-0.8l-0.6 -0.41c-0.12,-0.09 -0.45,-0.35 -0.57,-0.44 -3.2,-2.66 -7.06,-3.62 -11.39,-5.02 -0.11,-0.04 -0.24,-0.09 -0.36,-0.13l-0.76 -0.26c-9.41,-2.8 -43.08,-3.48 -52.89,-2.34 -4.99,0.58 -11.13,-0.34 -15.51,0.85 -0.62,6.31 3.28,2.48 5.45,8.33 3.47,9.32 2.17,48.24 2.25,60.08 0.09,12.74 0.45,24.88 0.67,37.74 0.12,7.53 0.75,20.64 -1.15,27.59 -0.52,1.87 -0.47,1.76 -1.27,3.29 -1.12,2.14 -0.56,2.41 -2.83,2.18zm22.56 -77.94l0.06 21.63c5.87,1.53 22.95,-0.52 28.21,-1.8 6.09,-1.47 14.47,-7.14 17.91,-12.8 4.98,-8.19 7.08,-9.09 7.22,-23.34 0.08,-9.03 -2.15,-16.85 -6.12,-24.54 -1.35,-2.62 -1.71,-2.21 -3.42,-4.17 -3.43,-3.94 -7.91,-8.37 -13.05,-9.89 -3.44,-1.03 -8.81,-2.88 -12.09,-3.17 -4.57,-0.41 -10.66,-0.15 -15.34,-0.07 -4.65,0.08 -3.56,0.39 -3.46,11.75l0.08 46.4z"/>
   <path class="fil1" d="M81.88 17.18c-0.07,1.16 -0.22,1.26 0.11,2.38 0.98,3.37 6.23,1.46 7.72,13.7 0.74,6.11 0.54,64.78 0.95,76.2 0.51,14.32 -0.55,35.16 0.48,48.44 0.67,8.68 0.05,21.36 -3.61,28.57 -1.49,2.94 -2.93,4.86 -5.2,7.06 -3.16,3.07 -5.72,0.97 -9.22,0.41 -2.08,-0.33 -3.67,-0.74 -5.18,-0.98 -2.91,-0.45 -8.99,-0.48 -12.07,-0.38 -5.31,0.18 -5.59,1.15 -8.47,3.74 -2.63,2.38 -3.37,4.5 -2.6,9.4 1.97,3.28 16.67,2.23 19.88,1.16l9.93 -4.19c1.23,-0.64 1.82,-0.89 3.03,-1.58 1.36,-0.76 1.47,-1.04 2.77,-1.83 0.94,-0.57 2.03,-1.14 2.9,-1.74 2.51,-1.71 5.45,-4.58 7.17,-7.12l1.84 -2.72c0.07,-0.08 0.18,-0.18 0.25,-0.26l1.26 -1.84c2,-2.76 0.5,0.91 4.08,-4.05 4.97,-6.9 0.84,-2.91 4.59,-7.6 1.6,-2 4.42,-10.62 5.37,-13.48 5.18,-15.67 2.7,-66.22 2.66,-86.71 -0.03,-12.15 -0.57,-29.28 0.01,-40.3 0.22,-4.17 1.03,-8.61 3.43,-10.76l1.77 -1.76c0.73,-0.81 6.25,-4.97 -1.21,-4.97 -6.88,0 -26.74,-0.12 -32.64,1.21z"/>
  </g>
 </g>
</svg>
